<?xml version="1.0" encoding="iso-8859-1"?>
<!-- Generator: Adobe Illustrator 19.0.0, SVG Export Plug-In . SVG Version: 6.00 Build 0)  -->
<svg version="1.1" id="Layer_1" xmlns="http://www.w3.org/2000/svg" xmlns:xlink="http://www.w3.org/1999/xlink" x="0px" y="0px"
	 viewBox="0 0 473.654 473.654" style="enable-background:new 0 0 473.654 473.654;" xml:space="preserve">
<circle style="fill:#49A0AE;" cx="236.827" cy="236.827" r="236.827"/>
<path style="fill:#A2D4DE;" d="M363.64,292.416c-18.324-17.625-36.876-28.712-59.081-12.285c-22.336,16.529-24.7,34.875-24.7,34.875
	s2.098,35.167-82.671-41.068c-76.287-84.806-41.098-82.708-41.098-82.708s18.339-2.363,34.868-24.7
	c16.428-22.202,4.835-40.275-12.284-59.085c-54.777-60.185-87.981,8.208-87.981,8.208c-38.783,65.274,25.863,142.852,75.734,189.065
	c46.225,49.871,123.765,114.457,189.009,75.681C355.432,380.401,424.685,351.153,363.64,292.416z"/>
<path style="fill:#404040;" d="M121.035,85.419c-0.045,0.015-0.067,0.052-0.108,0.071c0.49-0.206,0.995-0.389,1.488-0.572
	C121.955,85.083,121.488,85.236,121.035,85.419z"/>
<g>
	<path style="fill:#7DCDCC;" d="M301.339,242.07L301.339,242.07c-3.493,0-6.331-2.835-6.331-6.335
		c0.007-20.257-5.647-35.848-16.798-46.341c-17.785-16.731-44.176-15.325-44.437-15.314c-3.508,0.187-6.492-2.431-6.713-5.916
		c-0.221-3.489,2.416-6.488,5.901-6.72c1.301-0.067,31.97-1.84,53.831,18.634c13.855,12.98,20.882,31.708,20.882,55.652
		C307.67,239.235,304.835,242.07,301.339,242.07z"/>
	<path style="fill:#7DCDCC;" d="M276.848,242.276L276.848,242.276c-2.621,0-4.749-2.124-4.749-4.749
		c0-13.332-3.702-23.585-11.013-30.466c-11.671-10.987-29.034-10.078-29.21-10.059c-2.629,0.194-4.865-1.829-5.033-4.443
		c-0.161-2.61,1.81-4.865,4.428-5.037c0.868-0.052,21.518-1.242,36.248,12.554c9.341,8.751,14.076,21.353,14.076,37.452
		C281.597,240.152,279.47,242.276,276.848,242.276z"/>
	<path style="fill:#7DCDCC;" d="M331.629,244.561L331.629,244.561c-4.368,0-7.909-3.541-7.909-7.913
		c0-30.014-8.429-53.121-25.044-68.681c-26.536-24.853-65.297-22.628-65.689-22.598c-4.39,0.209-8.13-3.022-8.422-7.382
		c-0.284-4.36,3.025-8.13,7.386-8.418c1.87-0.112,46.057-2.655,77.551,26.839c19.939,18.675,30.047,45.679,30.047,80.24
		C339.546,241.019,336.001,244.561,331.629,244.561z"/>
	<path style="fill:#7DCDCC;" d="M366.175,253.94L366.175,253.94c-5.25,0-9.495-4.252-9.495-9.495
		c0-43.338-12.213-76.747-36.308-99.319c-38.424-35.99-94.518-32.744-95.09-32.718c-5.265,0.393-9.757-3.62-10.093-8.855
		c-0.344-5.235,3.616-9.753,8.852-10.097c2.621-0.187,64.945-3.751,109.315,37.807c28.077,26.3,42.317,64.384,42.31,113.182
		C375.67,249.688,371.418,253.94,366.175,253.94z"/>
</g>
<g>
</g>
<g>
</g>
<g>
</g>
<g>
</g>
<g>
</g>
<g>
</g>
<g>
</g>
<g>
</g>
<g>
</g>
<g>
</g>
<g>
</g>
<g>
</g>
<g>
</g>
<g>
</g>
<g>
</g>
</svg>
