<?xml version="1.0" encoding="iso-8859-1"?>
<!-- Generator: Adobe Illustrator 19.0.0, SVG Export Plug-In . SVG Version: 6.00 Build 0)  -->
<svg version="1.1" id="Layer_1" xmlns="http://www.w3.org/2000/svg" xmlns:xlink="http://www.w3.org/1999/xlink" x="0px" y="0px"
	 viewBox="0 0 505 505" style="enable-background:new 0 0 505 505;" xml:space="preserve">
<circle style="fill:#90DFAA;" cx="252.5" cy="252.5" r="252.5"/>
<path style="fill:#FFFFFF;" d="M399.6,151.3c-3.3-2.8-8.3-2.3-10.9,1.1l-55.6,72.7c-2.6,3.4-1.8,8.4,1.8,10.8c3.1,2.1,6.2,4,9.4,5.7
	l63.8-82.5C405.4,156.5,402.6,153.8,399.6,151.3z"/>
<path style="fill:#324A5E;" d="M237.9,431.3C355.3,384,414.8,271.8,430.5,237.9c1.8-2.8,3.1-5.9,4-9.1c0.2-0.5,0.3-0.7,0.3-0.7
	l-0.1-0.1c5.2-19.9-5.1-46.5-26.7-68.8l-63.8,82.5c8.8,4.9,17.8,8.6,26.5,10.9c-24.2,36.1-62.7,82.8-117.4,119.3
	c-2.4-9.1-6.2-18.5-11.4-27.8L159.3,408C185.4,433.5,217.4,443.5,237.9,431.3z"/>
<g>
	<path style="fill:#FFFFFF;" d="M241.9,344.1c-1.7-2.9-3.5-5.9-5.4-8.8c-2.4-3.6-7.4-4.4-10.8-1.8L153,389.1
		c-3.4,2.6-4,7.7-1.1,10.9c2.4,2.8,4.9,5.4,7.5,7.9L241.9,344.1z"/>
	<path style="fill:#FFFFFF;" d="M273.7,142.4H100.8c-3.9,0-7,3.1-7,7V265c0,3.9,3.1,7,7,7h116l56.7,39.4L258.7,272h15
		c3.9,0,7-3.1,7-7V149.4C280.7,145.5,277.5,142.4,273.7,142.4z"/>
</g>
<g>
	<rect x="119.4" y="191" style="fill:#FF7058;" width="27.3" height="27.3"/>
	<rect x="168.6" y="191" style="fill:#FF7058;" width="27.3" height="27.3"/>
	<rect x="217.8" y="191" style="fill:#FF7058;" width="27.3" height="27.3"/>
</g>
<g>
</g>
<g>
</g>
<g>
</g>
<g>
</g>
<g>
</g>
<g>
</g>
<g>
</g>
<g>
</g>
<g>
</g>
<g>
</g>
<g>
</g>
<g>
</g>
<g>
</g>
<g>
</g>
<g>
</g>
</svg>
