<svg width="48" height="48" viewBox="0 0 48 48" fill="none" xmlns="http://www.w3.org/2000/svg">
<path d="M43 24.0004C43 34.4947 34.4941 43.0003 24.0003 43C13.5059 43.0003 5 34.4947 5 24.0004C4.99948 13.5062 13.5059 5 24.0003 5C34.4941 5 43 13.5065 43 24.0004Z" fill="#FA6E51"/>
<path d="M43 24.0004C43 21.1329 42.361 18.4158 41.2237 15.9781C41.2135 15.9681 41.2038 15.9574 41.1931 15.9475C41.155 15.9068 36.8614 11.6129 36.8202 11.5746C36.3676 11.0921 35.728 10.7856 35.0138 10.7856H25.4335C24.0451 10.7856 22.8719 11.9145 22.8719 13.2511V18.9605C22.8719 19.2907 22.9435 19.6074 23.068 19.8992C23.0568 19.8895 23.0465 19.8791 23.0351 19.8696C22.9946 19.8314 18.9881 15.7249 17.1259 13.9603C17.0853 13.9218 16.9315 13.7589 16.8884 13.7231C16.4684 13.3256 15.927 13.0756 15.3427 13.0391C14.6311 13.0028 13.9341 13.2592 13.4301 13.7645L11.3795 15.82C10.2406 16.9611 8.59151 20.6167 17.8516 29.8965C17.8708 29.9157 17.8884 29.932 17.9075 29.9512C17.929 29.9726 29.9422 41.9858 29.9604 42.004C29.9698 42.0135 29.9788 42.0228 29.9877 42.0318C37.5462 39.5234 43 32.4016 43 24.0004Z" fill="#E8573F"/>
<path d="M33.7221 30.6028L30.5118 28.0987C29.6057 27.3925 28.3438 27.3969 27.4424 28.1097L26.7286 28.6748C26.1874 29.1031 25.4106 29.0576 24.9225 28.5694L19.1805 22.815C18.6917 22.3246 18.6462 21.5448 19.0748 21.0012L19.6388 20.2856C20.3499 19.384 20.3546 18.1204 19.6497 17.2132L17.1514 13.9964C16.7137 13.4324 16.0544 13.0837 15.3428 13.0392C14.6311 13.0029 13.9343 13.2594 13.4301 13.7646L11.3796 15.8201C10.2407 16.9612 8.5916 20.6167 17.8517 29.8967C23.8865 35.9448 27.569 37.2145 29.5957 37.2145H29.5959C30.8163 37.2145 31.5239 36.7625 31.9022 36.3831L33.953 34.3283C34.4565 33.8236 34.7201 33.1256 34.6756 32.4129C34.6314 31.7011 34.2838 31.0411 33.7221 30.6028ZM33.1567 33.5341L31.1059 35.589C30.878 35.8174 30.4308 36.0898 29.5955 36.0898C28.1107 36.0898 24.7139 35.1821 18.6479 29.1025C11.6602 22.1 10.7941 17.9984 12.1758 16.614L14.2263 14.5586C14.4821 14.3022 14.829 14.1594 15.1886 14.1594C15.2167 14.1594 15.2446 14.1599 15.2729 14.1622C15.6623 14.1863 16.023 14.3774 16.263 14.686L18.7616 17.9029C19.1482 18.4009 19.1457 19.0944 18.7556 19.5893L18.1916 20.3048C17.4106 21.2954 17.4933 22.7161 18.384 23.6089L24.1264 29.3639C25.0187 30.2573 26.4377 30.3391 27.4265 29.5566L28.1403 28.9915C28.6331 28.5999 29.3242 28.5978 29.8198 28.9849L33.03 31.489C33.3384 31.7295 33.5289 32.0919 33.5531 32.4824C33.5776 32.8741 33.4328 33.2568 33.1567 33.5341Z" fill="#F6F6F6"/>
<path d="M35.0139 10.7855H25.4336C24.0451 10.7855 22.8719 11.9145 22.8719 13.2511V18.9605C22.8719 20.3208 24.0451 21.4696 25.4336 21.4696H25.6834V23.7189C25.6834 23.9429 25.816 24.145 26.0214 24.2345C26.0936 24.2657 26.1699 24.2811 26.2458 24.2811C26.3852 24.2811 26.5228 24.229 26.6291 24.1301L29.4871 21.4696H35.0139C36.3804 21.4696 37.4921 20.3438 37.4921 18.9605V13.2511C37.4921 11.8915 36.3804 10.7855 35.0139 10.7855ZM36.3675 18.9605C36.3675 19.7112 35.7475 20.3449 35.0139 20.3449H29.2657C29.1234 20.3449 28.9867 20.3988 28.8824 20.496L26.808 22.4273V20.9073C26.808 20.5965 26.5562 20.3449 26.2456 20.3449H25.4334C24.6814 20.3449 23.9963 19.6848 23.9963 18.9605V13.2511C23.9963 12.5367 24.6679 11.9101 25.4334 11.9101H35.0137C35.76 11.9101 36.3673 12.5114 36.3673 13.2511V18.9605H36.3675Z" fill="#F6F6F6"/>
<path d="M33.314 15.6212C33.1059 15.5372 32.853 15.5878 32.7012 15.7448C32.5944 15.8519 32.5323 15.9925 32.5323 16.1446C32.5323 16.2907 32.5944 16.4312 32.7012 16.5378C32.808 16.6449 32.9485 16.7069 33.1004 16.7069C33.1735 16.7069 33.2464 16.6899 33.314 16.6618C33.3815 16.6333 33.4434 16.5943 33.4938 16.5377C33.6006 16.4311 33.6569 16.2906 33.6569 16.1445C33.6569 15.9924 33.6006 15.8518 33.4938 15.7446C33.4433 15.6943 33.3815 15.6493 33.314 15.6212Z" fill="#F6F6F6"/>
<path d="M30.4407 15.6212C30.2326 15.5372 29.9794 15.5878 29.8276 15.7448C29.7208 15.8519 29.659 15.9925 29.659 16.1446C29.659 16.2907 29.7208 16.4312 29.8276 16.5378C29.8784 16.5944 29.9402 16.6333 30.0077 16.662C30.0752 16.69 30.1483 16.707 30.2213 16.707C30.3732 16.707 30.5137 16.645 30.6205 16.538C30.7273 16.4314 30.7836 16.2909 30.7836 16.1448C30.7836 15.9927 30.7273 15.8521 30.6205 15.7449C30.57 15.6943 30.5079 15.6493 30.4407 15.6212Z" fill="#F6F6F6"/>
<path d="M27.567 15.6212C27.3592 15.5372 27.106 15.5878 26.9487 15.7448C26.8474 15.8519 26.7856 15.9925 26.7856 16.1446C26.7856 16.2907 26.8474 16.4312 26.9487 16.5378C27.0047 16.5944 27.0667 16.6333 27.134 16.662C27.2016 16.69 27.2746 16.707 27.3479 16.707C27.4265 16.707 27.494 16.69 27.5671 16.662C27.6346 16.6334 27.6965 16.5945 27.7472 16.5378C27.854 16.4312 27.9103 16.2908 27.9103 16.1446C27.9103 15.9925 27.854 15.852 27.7472 15.7448C27.6963 15.6943 27.6346 15.6493 27.567 15.6212Z" fill="#F6F6F6"/>
</svg>
