<?xml version="1.0" encoding="iso-8859-1"?>
<!-- Generator: Adobe Illustrator 19.0.0, SVG Export Plug-In . SVG Version: 6.00 Build 0)  -->
<svg version="1.1" id="Layer_1" xmlns="http://www.w3.org/2000/svg" xmlns:xlink="http://www.w3.org/1999/xlink" x="0px" y="0px"
	 viewBox="0 0 489.989 489.989" style="enable-background:new 0 0 489.989 489.989;" xml:space="preserve">
<g>
	<g>
		<g>
			<path d="M489.989,34.453H0v306.243h213.641l-6.264,68.905H176.09c-12.665,0-22.968,10.303-22.968,22.968
				s10.303,22.968,22.968,22.968h137.809c12.665,0,22.968-10.303,22.968-22.968c0-12.665-10.303-22.968-22.968-22.968h-31.287
				l-6.264-68.905h213.641V34.453z M313.899,424.913c4.221,0,7.656,3.436,7.656,7.656c0,4.221-3.436,7.656-7.656,7.656H176.09
				c-4.221,0-7.656-3.435-7.656-7.656c0-4.22,3.436-7.656,7.656-7.656H313.899z M222.755,409.6l6.264-68.905h31.95l6.265,68.905
				H222.755z M474.677,325.384H15.312V49.764h459.365V325.384z"/>
			<rect x="38.28" y="294.759" width="99.529" height="15.312"/>
			<rect x="153.122" y="294.759" width="15.312" height="15.312"/>
			<rect x="183.746" y="294.759" width="15.312" height="15.312"/>
			<rect x="214.37" y="294.759" width="15.312" height="15.312"/>
			
				<rect x="279.45" y="100.302" transform="matrix(0.7071 0.7071 -0.7071 0.7071 208.6078 -151.4375)" width="15.31" height="151.582"/>
			
				<rect x="317.728" y="177.408" transform="matrix(-0.7071 -0.7071 0.7071 -0.7071 414.7066 569.9017)" width="15.311" height="43.309"/>
			
				<rect x="388.547" y="71.401" transform="matrix(0.7071 0.7071 -0.7071 0.7071 206.7273 -242.5955)" width="15.31" height="113.686"/>
			<rect x="229.682" y="65.078" width="30.624" height="15.312"/>
		</g>
	</g>
</g>
<g>
</g>
<g>
</g>
<g>
</g>
<g>
</g>
<g>
</g>
<g>
</g>
<g>
</g>
<g>
</g>
<g>
</g>
<g>
</g>
<g>
</g>
<g>
</g>
<g>
</g>
<g>
</g>
<g>
</g>
</svg>
